<?xml version="1.0" encoding="utf-8"?>
<svg xmlns="http://www.w3.org/2000/svg" style="margin: auto; background: rgb(241, 242, 243); display: block; shape-rendering: auto;" width="280" height="250" preserveAspectRatio="xMidYMid">
<style type="text/css">
  text {
    text-anchor: middle; font-size: 45px; opacity: 0;
  }
</style>
<g style="transform-origin: 140px 125px; transform: scale(0.5625);">
<g transform="translate(140,125)">
  <g transform="translate(0,0)"><g class="path" style="transform: scale(0.91); transform-origin: -160.6px 5.39618px; animation: 1s linear -0.609231s infinite normal forwards running breath-451f748c-8915-4ce2-94fb-b6a84594020a;"><path d="M46.48-44.24L46.48-44.24L46.48-44.24Q40.16-46.96 32.76-46.96L32.76-46.96L32.76-46.96Q25.36-46.96 20.76-42.24L20.76-42.24L20.76-42.24Q16.16-37.52 16.16-29.92L16.16-29.92L14.40-29.92L14.40-29.92Q14.40-38.24 19.52-43.48L19.52-43.48L19.52-43.48Q24.64-48.72 32.64-48.72L32.64-48.72L32.64-48.72Q39.04-48.72 46.48-46.24L46.48-46.24L46.48-46.24Q55.04-43.12 65.04-43.12L65.04-43.12L65.04-41.44L65.04-41.44Q59.04-41.44 55.44-42L55.44-42L55.44-42Q53.60-33.04 50.32-19.44L50.32-19.44L50.32-19.44Q47.04-5.84 45.80-2.08L45.80-2.08L45.80-2.08Q44.56 1.68 42.40 5.68L42.40 5.68L42.40 5.68Q40.24 9.68 37.56 12.20L37.56 12.20L37.56 12.20Q34.88 14.72 30.84 16.36L30.84 16.36L30.84 16.36Q26.80 18 22.12 18L22.12 18L22.12 18Q17.44 18 13.28 16.24L13.28 16.24L13.28 16.24Q9.12 14.48 6.32 11.36L6.32 11.36L6.32 11.36Q1.52 5.84 1.52-2L1.52-2L1.52-2Q1.52-3.28 1.60-4.56L1.60-4.56L3.36-4.32L3.36-4.32Q3.28-3.20 3.28-2.08L3.28-2.08L3.28-2.08Q3.28 5.36 7.80 10.36L7.80 10.36L7.80 10.36Q12.32 15.36 20 15.36L20 15.36L20 15.36Q27.68 15.36 30.80 11.28L30.80 11.28L30.80 11.28Q33.92 7.20 36.76-4.40L36.76-4.40L36.76-4.40Q39.60-16 46.48-44.24" fill="#93dbe9" stroke="none" stroke-width="none" transform="translate(-193.8800048828125,20.75618377685547)" style="fill: rgb(147, 219, 233);"></path></g><g class="path" style="transform: scale(0.91); transform-origin: -120.8px 2.39618px; animation: 1s linear -0.558462s infinite normal forwards running breath-451f748c-8915-4ce2-94fb-b6a84594020a;"><path d="M92-53.20L92-53.20L93.84-53.20L93.84-53.20Q93.84-48.64 90.44-40.36L90.44-40.36L90.44-40.36Q87.04-32.08 87.04-28.48L87.04-28.48L85.28-28.48L85.28-28.48Q85.28-32.08 86.40-35L86.40-35L86.40-35Q87.52-37.92 88.60-40.44L88.60-40.44L88.60-40.44Q89.68-42.96 90.16-44.32L90.16-44.32L90.16-44.32Q77.52-43.60 64.64-26.80L64.64-26.80L64.64-26.80Q61.76-23.28 59.36-19.92L59.36-19.92L59.36-19.92Q66.96-4.08 70.52 2.44L70.52 2.44L70.52 2.44Q74.08 8.96 76.48 11.44L76.48 11.44L76.48 11.44Q78.88 13.92 81.60 13.92L81.60 13.92L81.60 13.92Q84.32 13.92 86.28 12.36L86.28 12.36L86.28 12.36Q88.24 10.80 89.04 8.16L89.04 8.16L91.04 8.16L91.04 8.16Q88.48 16.48 78.48 16.48L78.48 16.48L78.48 16.48Q72.16 16.48 68.08 13.48L68.08 13.48L68.08 13.48Q64 10.48 61.12 4.40L61.12 4.40L52.32-14.16L63.76-29.04L63.76-29.04Q69.60-36.64 76.12-41.32L76.12-41.32L76.12-41.32Q82.64-46 90.80-46.24L90.80-46.24L90.80-46.24Q92-49.84 92-53.20" fill="#93dbe9" stroke="none" stroke-width="none" transform="translate(-193.8800048828125,20.75618377685547)" style="fill: rgb(104, 156, 197);"></path></g><g class="path" style="transform: scale(0.91); transform-origin: -87.8px 5.55618px; animation: 1s linear -0.507692s infinite normal forwards running breath-451f748c-8915-4ce2-94fb-b6a84594020a;"><path d="M102.96 0.72L102.96 0.72Q96.80 0.72 93.60-2.36L93.60-2.36L93.60-2.36Q90.40-5.44 90.40-10.12L90.40-10.12L90.40-10.12Q90.40-14.80 91.24-18.12L91.24-18.12L91.24-18.12Q92.08-21.44 94-24.52L94-24.52L94-24.52Q95.92-27.60 99.80-29.36L99.80-29.36L99.80-29.36Q103.68-31.12 109.48-31.12L109.48-31.12L109.48-31.12Q115.28-31.12 118.52-28.04L118.52-28.04L118.52-28.04Q121.76-24.96 121.76-19.60L121.76-19.60L121.76-19.60Q121.76-10.48 116.92-4.88L116.92-4.88L116.92-4.88Q112.08 0.72 102.96 0.72L102.96 0.72zM99.44-7.52L99.44-7.52L99.44-7.52Q99.44-1.12 103.16-1.12L103.16-1.12L103.16-1.12Q106.88-1.12 109.80-7.56L109.80-7.56L109.80-7.56Q112.72-14 112.72-22.88L112.72-22.88L112.72-22.88Q112.72-29.60 109.08-29.60L109.08-29.60L109.08-29.60Q105.44-29.60 102.44-23.48L102.44-23.48L102.44-23.48Q99.44-17.36 99.44-7.52" fill="#93dbe9" stroke="none" stroke-width="none" transform="translate(-193.8800048828125,20.75618377685547)" style="fill: rgb(94, 111, 163);"></path></g><g class="path" style="transform: scale(0.91); transform-origin: -52.52px 5.55618px; animation: 1s linear -0.456923s infinite normal forwards running breath-451f748c-8915-4ce2-94fb-b6a84594020a;"><path d="M138.24 0.72L138.24 0.72Q132.08 0.72 128.88-2.36L128.88-2.36L128.88-2.36Q125.68-5.44 125.68-10.12L125.68-10.12L125.68-10.12Q125.68-14.80 126.52-18.12L126.52-18.12L126.52-18.12Q127.36-21.44 129.28-24.52L129.28-24.52L129.28-24.52Q131.20-27.60 135.08-29.36L135.08-29.36L135.08-29.36Q138.96-31.12 144.76-31.12L144.76-31.12L144.76-31.12Q150.56-31.12 153.80-28.04L153.80-28.04L153.80-28.04Q157.04-24.96 157.04-19.60L157.04-19.60L157.04-19.60Q157.04-10.48 152.20-4.88L152.20-4.88L152.20-4.88Q147.36 0.72 138.24 0.72L138.24 0.72zM134.72-7.52L134.72-7.52L134.72-7.52Q134.72-1.12 138.44-1.12L138.44-1.12L138.44-1.12Q142.16-1.12 145.08-7.56L145.08-7.56L145.08-7.56Q148-14 148-22.88L148-22.88L148-22.88Q148-29.60 144.36-29.60L144.36-29.60L144.36-29.60Q140.72-29.60 137.72-23.48L137.72-23.48L137.72-23.48Q134.72-17.36 134.72-7.52" fill="#93dbe9" stroke="none" stroke-width="none" transform="translate(-193.8800048828125,20.75618377685547)" style="fill: rgb(59, 67, 104);"></path></g><g class="path" style="transform: scale(0.91); transform-origin: -21.36px -4.80382px; animation: 1s linear -0.406154s infinite normal forwards running breath-451f748c-8915-4ce2-94fb-b6a84594020a;"><path d="M175.60-2.88L175.60-2.88L175.60-2.88Q174.56-1.52 172.76-0.40L172.76-0.40L172.76-0.40Q170.96 0.72 168.08 0.72L168.08 0.72L168.08 0.72Q165.20 0.72 163.20-1.12L163.20-1.12L163.20-1.12Q161.20-2.96 161.20-6.32L161.20-6.32L161.20-6.32Q161.20-6.96 161.36-8.40L161.36-8.40L166.56-37.20L166.56-37.20Q168-45.12 170.52-48.48L170.52-48.48L170.52-48.48Q173.04-51.84 177.20-51.84L177.20-51.84L177.20-51.84Q180.08-51.84 181.96-49.68L181.96-49.68L181.96-49.68Q183.84-47.52 183.84-43.12L183.84-43.12L183.84-43.12Q183.84-38.72 180.44-30.56L180.44-30.56L180.44-30.56Q177.04-22.40 177.04-18.64L177.04-18.64L175.60-18.64L175.60-18.64Q175.60-22.88 178.96-30.76L178.96-30.76L178.96-30.76Q182.32-38.64 182.32-43.36L182.32-43.36L182.32-43.36Q182.32-46.24 181-48.32L181-48.32L181-48.32Q179.68-50.40 177.76-50.40L177.76-50.40L177.76-50.40Q177.68-48.32 175-31.72L175-31.72L175-31.72Q172.32-15.12 169.68-0.88L169.68-0.88L169.68-0.88Q171.92-0.88 173.84-3.20L173.84-3.20L173.84-3.20Q175.76-5.52 176.56-7.84L176.56-7.84L177.44-10.24L178.88-9.60L178.88-9.60Q178.64-8.48 177.64-6.36L177.64-6.36L177.64-6.36Q176.64-4.24 175.60-2.88" fill="#93dbe9" stroke="none" stroke-width="none" transform="translate(-193.8800048828125,20.75618377685547)" style="fill: rgb(25, 29, 58);"></path></g><g class="path" style="transform: scale(0.91); transform-origin: 1.35999px -22.1638px; animation: 1s linear -0.355385s infinite normal forwards running breath-451f748c-8915-4ce2-94fb-b6a84594020a;"><path d="M191.12-38.80L191.12-38.80L191.12-38.80Q189.44-40.48 189.44-42.88L189.44-42.88L189.44-42.88Q189.44-45.28 191.12-47L191.12-47L191.12-47Q192.80-48.72 195.20-48.72L195.20-48.72L195.20-48.72Q197.60-48.72 199.32-47L199.32-47L199.32-47Q201.04-45.28 201.04-42.88L201.04-42.88L201.04-42.88Q201.04-40.48 199.32-38.80L199.32-38.80L199.32-38.80Q197.60-37.12 195.20-37.12L195.20-37.12L195.20-37.12Q192.80-37.12 191.12-38.80" fill="#93dbe9" stroke="none" stroke-width="none" transform="translate(-193.8800048828125,20.75618377685547)" style="fill: rgb(217, 219, 238);"></path></g><g class="path" style="transform: scale(0.91); transform-origin: -8.24001px 12.5562px; animation: 1s linear -0.304615s infinite normal forwards running breath-451f748c-8915-4ce2-94fb-b6a84594020a;"><path d="M185.12-30.40L188.56-30.40L188.56-30.40Q194.48-30.40 197.36-30.88L197.36-30.88L198.40-31.12L198.40-31.12Q197.60-26.80 195.80-16.76L195.80-16.76L195.80-16.76Q194.00-6.72 193.20-2.40L193.20-2.40L193.20-2.40Q191.68 6.16 187.72 10.44L187.72 10.44L187.72 10.44Q183.76 14.72 176.56 14.72L176.56 14.72L176.56 14.72Q174.16 14.72 172.88 14L172.88 14L173.44 12.48L173.44 12.48Q174.80 13.20 176.84 13.20L176.84 13.20L176.84 13.20Q178.88 13.20 180.00 11.72L180.00 11.72L180.00 11.72Q181.12 10.24 181.92 6L181.92 6L181.92 6Q184.72-9.12 188.40-28.96L188.40-28.96L184.96-28.96L185.12-30.40" fill="#93dbe9" stroke="none" stroke-width="none" transform="translate(-193.8800048828125,20.75618377685547)" style="fill: rgb(179, 183, 226);"></path></g><g class="path" style="transform: scale(0.91); transform-origin: 23.32px 5.55618px; animation: 1s linear -0.253846s infinite normal forwards running breath-451f748c-8915-4ce2-94fb-b6a84594020a;"><path d="M214.08 0.72L214.08 0.72Q207.92 0.72 204.72-2.36L204.72-2.36L204.72-2.36Q201.52-5.44 201.52-10.12L201.52-10.12L201.52-10.12Q201.52-14.80 202.36-18.12L202.36-18.12L202.36-18.12Q203.20-21.44 205.12-24.52L205.12-24.52L205.12-24.52Q207.04-27.60 210.92-29.36L210.92-29.36L210.92-29.36Q214.80-31.12 220.60-31.12L220.60-31.12L220.60-31.12Q226.40-31.12 229.64-28.04L229.64-28.04L229.64-28.04Q232.88-24.96 232.88-19.60L232.88-19.60L232.88-19.60Q232.88-10.48 228.04-4.88L228.04-4.88L228.04-4.88Q223.20 0.72 214.08 0.72L214.08 0.72zM210.56-7.52L210.56-7.52L210.56-7.52Q210.56-1.12 214.28-1.12L214.28-1.12L214.28-1.12Q218-1.12 220.92-7.56L220.92-7.56L220.92-7.56Q223.84-14 223.84-22.88L223.84-22.88L223.84-22.88Q223.84-29.60 220.20-29.60L220.20-29.60L220.20-29.60Q216.56-29.60 213.56-23.48L213.56-23.48L213.56-23.48Q210.56-17.36 210.56-7.52" fill="#93dbe9" stroke="none" stroke-width="none" transform="translate(-193.8800048828125,20.75618377685547)" style="fill: rgb(147, 219, 233);"></path></g><g class="path" style="transform: scale(0.91); transform-origin: 56.68px 5.55618px; animation: 1s linear -0.203077s infinite normal forwards running breath-451f748c-8915-4ce2-94fb-b6a84594020a;"><path d="M254.08-31.12L254.08-31.12L254.08-31.12Q264.24-31.12 264.24-23.04L264.24-23.04L264.24-23.04Q264.24-18 259.48-15.40L259.48-15.40L259.48-15.40Q254.72-12.80 245.92-12.72L245.92-12.72L245.92-12.72Q245.76-9.84 245.76-8.16L245.76-8.16L245.76-8.16Q245.76-4.56 247.40-2.84L247.40-2.84L247.40-2.84Q249.04-1.12 251.52-1.12L251.52-1.12L251.52-1.12Q254-1.12 256.04-2.08L256.04-2.08L256.04-2.08Q258.08-3.04 259.28-4.36L259.28-4.36L259.28-4.36Q260.48-5.68 261.36-7.12L261.36-7.12L261.36-7.12Q262.96-9.76 262.96-10.48L262.96-10.48L264.40-9.84L264.40-9.84Q264.16-8.56 262.96-6.44L262.96-6.44L262.96-6.44Q261.76-4.32 260.32-2.96L260.32-2.96L260.32-2.96Q258.88-1.60 256.08-0.44L256.08-0.44L256.08-0.44Q253.28 0.72 249.84 0.72L249.84 0.72L249.84 0.72Q243.36 0.72 240.04-2.36L240.04-2.36L240.04-2.36Q236.72-5.44 236.72-10.80L236.72-10.80L236.72-10.80Q236.72-20.32 241.44-25.72L241.44-25.72L241.44-25.72Q246.16-31.12 254.08-31.12zM262.24-23.04L262.24-23.04Q262.24-25.68 260.68-27.40L260.68-27.40L260.68-27.40Q259.12-29.12 256.04-29.12L256.04-29.12L256.04-29.12Q252.96-29.12 250.04-25.44L250.04-25.44L250.04-25.44Q247.12-21.76 246.16-14.56L246.16-14.56L246.16-14.56Q262.24-14.64 262.24-23.04L262.24-23.04" fill="#93dbe9" stroke="none" stroke-width="none" transform="translate(-193.8800048828125,20.75618377685547)" style="fill: rgb(104, 156, 197);"></path></g><g class="path" style="transform: scale(0.91); transform-origin: 80.64px 15.5962px; animation: 1s linear -0.152308s infinite normal forwards running breath-451f748c-8915-4ce2-94fb-b6a84594020a;"><path d="M270.40-1.04L270.40-1.04L270.40-1.04Q268.72-2.72 268.72-5.12L268.72-5.12L268.72-5.12Q268.72-7.52 270.40-9.24L270.40-9.24L270.40-9.24Q272.08-10.96 274.48-10.96L274.48-10.96L274.48-10.96Q276.88-10.96 278.60-9.24L278.60-9.24L278.60-9.24Q280.32-7.52 280.32-5.12L280.32-5.12L280.32-5.12Q280.32-2.72 278.60-1.04L278.60-1.04L278.60-1.04Q276.88 0.64 274.48 0.64L274.48 0.64L274.48 0.64Q272.08 0.64 270.40-1.04" fill="#93dbe9" stroke="none" stroke-width="none" transform="translate(-193.8800048828125,20.75618377685547)" style="fill: rgb(94, 111, 163);"></path></g><g class="path" style="transform: scale(0.91); transform-origin: 111.76px -4.80382px; animation: 1s linear -0.101538s infinite normal forwards running breath-451f748c-8915-4ce2-94fb-b6a84594020a;"><path d="M315.28 0.72L315.28 0.72L315.28 0.72Q308.24 0.72 307.60-5.28L307.60-5.28L307.60-5.28Q304.08 0.72 298.64 0.72L298.64 0.72L298.64 0.72Q293.20 0.72 290.32-2.36L290.32-2.36L290.32-2.36Q287.44-5.44 287.44-10.80L287.44-10.80L287.44-10.80Q287.44-20.24 291.92-25.68L291.92-25.68L291.92-25.68Q296.40-31.12 303.52-31.12L303.52-31.12L303.52-31.12Q307.60-31.12 309.84-28.64L309.84-28.64L309.84-28.64Q310.80-27.36 311.04-26.72L311.04-26.72L315.36-50.24L315.36-50.24Q312.96-50 311.36-48L311.36-48L310.16-48.96L310.16-48.96Q312.56-51.84 316.20-51.84L316.20-51.84L316.20-51.84Q319.84-51.84 321.84-50L321.84-50L321.84-50Q323.84-48.16 323.84-44.80L323.84-44.80L323.84-44.80Q323.84-44.16 323.68-42.72L323.68-42.72L323.68-42.72Q319.76-20.72 316.08-0.88L316.08-0.88L316.08-0.88Q318.48-1.12 320.08-3.12L320.08-3.12L321.28-2.16L321.28-2.16Q318.88 0.72 315.28 0.72zM296.48-7.52L296.48-7.52Q296.48-3.84 297.24-2.48L297.24-2.48L297.24-2.48Q298-1.12 299.64-1.12L299.64-1.12L299.64-1.12Q301.28-1.12 302.80-2.24L302.80-2.24L302.80-2.24Q304.32-3.36 305.36-5.12L305.36-5.12L305.36-5.12Q307.28-8.08 308.08-10.16L308.08-10.16L310.40-22.80L310.40-22.80Q310.24-25.36 308.72-27.48L308.72-27.48L308.72-27.48Q307.20-29.60 303.52-29.60L303.52-29.60L303.52-29.60Q300.96-29.60 298.72-22.08L298.72-22.08L298.72-22.08Q296.48-14.56 296.48-7.52L296.48-7.52" fill="#93dbe9" stroke="none" stroke-width="none" transform="translate(-193.8800048828125,20.75618377685547)" style="fill: rgb(59, 67, 104);"></path></g><g class="path" style="transform: scale(0.91); transform-origin: 145.88px 5.55618px; animation: 1s linear -0.0507692s infinite normal forwards running breath-451f748c-8915-4ce2-94fb-b6a84594020a;"><path d="M343.28-31.12L343.28-31.12L343.28-31.12Q353.44-31.12 353.44-23.04L353.44-23.04L353.44-23.04Q353.44-18 348.68-15.40L348.68-15.40L348.68-15.40Q343.92-12.80 335.12-12.72L335.12-12.72L335.12-12.72Q334.96-9.84 334.96-8.16L334.96-8.16L334.96-8.16Q334.96-4.56 336.60-2.84L336.60-2.84L336.60-2.84Q338.24-1.12 340.72-1.12L340.72-1.12L340.72-1.12Q343.20-1.12 345.24-2.08L345.24-2.08L345.24-2.08Q347.28-3.04 348.48-4.36L348.48-4.36L348.48-4.36Q349.68-5.68 350.56-7.12L350.56-7.12L350.56-7.12Q352.16-9.76 352.16-10.48L352.16-10.48L353.60-9.84L353.60-9.84Q353.36-8.56 352.16-6.44L352.16-6.44L352.16-6.44Q350.96-4.32 349.52-2.96L349.52-2.96L349.52-2.96Q348.08-1.60 345.28-0.44L345.28-0.44L345.28-0.44Q342.48 0.72 339.04 0.72L339.04 0.72L339.04 0.72Q332.56 0.72 329.24-2.36L329.24-2.36L329.24-2.36Q325.92-5.44 325.92-10.80L325.92-10.80L325.92-10.80Q325.92-20.32 330.64-25.72L330.64-25.72L330.64-25.72Q335.36-31.12 343.28-31.12zM351.44-23.04L351.44-23.04Q351.44-25.68 349.88-27.40L349.88-27.40L349.88-27.40Q348.32-29.12 345.24-29.12L345.24-29.12L345.24-29.12Q342.16-29.12 339.24-25.44L339.24-25.44L339.24-25.44Q336.32-21.76 335.36-14.56L335.36-14.56L335.36-14.56Q351.44-14.64 351.44-23.04L351.44-23.04" fill="#93dbe9" stroke="none" stroke-width="none" transform="translate(-193.8800048828125,20.75618377685547)" style="fill: rgb(25, 29, 58);"></path></g><g class="path" style="transform: scale(0.91); transform-origin: 179.44px 5.55618px; animation: 1s linear 0s infinite normal forwards running breath-451f748c-8915-4ce2-94fb-b6a84594020a;"><path d="M378.72-21.20L378.72-21.20L378.72-21.20Q377.04-22.88 377.04-25.28L377.04-25.28L377.04-25.28Q377.04-27.68 378.72-29.40L378.72-29.40L378.72-29.40Q380.40-31.12 382.52-31.12L382.52-31.12L382.52-31.12Q384.64-31.12 386.12-30.04L386.12-30.04L386.12-30.04Q387.60-28.96 388.24-27.28L388.24-27.28L388.24-27.28Q388.32-27.20 388.32-27.12L388.32-27.12L388.32-27.04L388.32-27.04Q389.28-24.96 389.28-21L389.28-21L389.28-21Q389.28-17.04 388.36-13.76L388.36-13.76L388.36-13.76Q387.44-10.48 385.56-7.08L385.56-7.08L385.56-7.08Q383.68-3.68 380.08-1.48L380.08-1.48L380.08-1.48Q376.48 0.72 371.60 0.72L371.60 0.72L371.60 0.72Q366.72 0.72 363.48-2.48L363.48-2.48L363.48-2.48Q360.24-5.68 360.24-9.84L360.24-9.84L360.24-9.84Q360.24-14 361.72-20.12L361.72-20.12L361.72-20.12Q363.20-26.24 363.36-29.52L363.36-29.52L363.36-29.52Q362.08-29.44 360.88-28.60L360.88-28.60L360.88-28.60Q359.68-27.76 359.12-26.96L359.12-26.96L358.56-26.16L357.36-27.12L357.36-27.12Q357.60-27.60 358.08-28.24L358.08-28.24L358.08-28.24Q358.56-28.88 360.52-30L360.52-30L360.52-30Q362.48-31.12 365.44-31.12L365.44-31.12L365.44-31.12Q368.40-31.12 370.20-29.20L370.20-29.20L370.20-29.20Q372-27.28 372-24.32L372-24.32L372-24.32Q372-21.36 370.40-15.16L370.40-15.16L370.40-15.16Q368.80-8.96 368.80-6.44L368.80-6.44L368.80-6.44Q368.80-3.92 369.96-2.48L369.96-2.48L369.96-2.48Q371.12-1.04 373.28-1.04L373.28-1.04L373.28-1.04Q378.64-1.04 383.04-6.88L383.04-6.88L383.04-6.88Q387.44-12.72 387.44-19.92L387.44-19.92L387.44-19.92Q387.44-20.48 387.28-21.60L387.28-21.60L387.28-21.60Q385.60-19.52 383-19.52L383-19.52L383-19.52Q380.40-19.52 378.72-21.20" fill="#93dbe9" stroke="none" stroke-width="none" transform="translate(-193.8800048828125,20.75618377685547)" style="fill: rgb(217, 219, 238);"></path></g></g>
</g>
</g>
<style id="breath-451f748c-8915-4ce2-94fb-b6a84594020a" data-anikit="">@keyframes breath-451f748c-8915-4ce2-94fb-b6a84594020a
{
  0% {
    animation-timing-function: cubic-bezier(0.9647,0.2413,-0.0705,0.7911);
    transform: scale(0.9099999999999999);
  }
  51% {
    animation-timing-function: cubic-bezier(0.9226,0.2631,-0.0308,0.7628);
    transform: scale(1.02994);
  }
  100% {
    transform: scale(0.9099999999999999);
  }
}</style></svg>